<mxfile host="app.diagrams.net" agent="Mozilla/5.0 (Windows NT 10.0; Win64; x64) AppleWebKit/537.36 (KHTML, like Gecko) Chrome/130.0.0.0 Safari/537.36 Edg/130.0.0.0" version="24.8.4">
  <diagram name="第 1 页" id="sAQX84MtMOfT4B53J776">
    <mxGraphModel dx="1966" dy="1636" grid="0" gridSize="10" guides="1" tooltips="1" connect="1" arrows="1" fold="1" page="0" pageScale="1" pageWidth="827" pageHeight="1169" math="0" shadow="0">
      <root>
        <mxCell id="0" />
        <mxCell id="1" parent="0" />
        <mxCell id="6R2seUFfjXMMIa1IyGc2-10" value="" style="edgeStyle=none;curved=1;rounded=0;orthogonalLoop=1;jettySize=auto;html=1;fontSize=12;startSize=8;endSize=8;" edge="1" parent="1" source="6R2seUFfjXMMIa1IyGc2-1" target="6R2seUFfjXMMIa1IyGc2-9">
          <mxGeometry relative="1" as="geometry" />
        </mxCell>
        <mxCell id="6R2seUFfjXMMIa1IyGc2-1" value="start" style="rounded=1;whiteSpace=wrap;html=1;" vertex="1" parent="1">
          <mxGeometry x="112" y="-146" width="120" height="60" as="geometry" />
        </mxCell>
        <mxCell id="6R2seUFfjXMMIa1IyGc2-12" value="" style="edgeStyle=none;curved=1;rounded=0;orthogonalLoop=1;jettySize=auto;html=1;fontSize=12;startSize=8;endSize=8;" edge="1" parent="1" source="6R2seUFfjXMMIa1IyGc2-9" target="6R2seUFfjXMMIa1IyGc2-11">
          <mxGeometry relative="1" as="geometry" />
        </mxCell>
        <mxCell id="6R2seUFfjXMMIa1IyGc2-9" value="input n" style="shape=parallelogram;perimeter=parallelogramPerimeter;whiteSpace=wrap;html=1;fixedSize=1;" vertex="1" parent="1">
          <mxGeometry x="109" y="-32" width="120" height="60" as="geometry" />
        </mxCell>
        <mxCell id="6R2seUFfjXMMIa1IyGc2-16" value="" style="edgeStyle=none;curved=1;rounded=0;orthogonalLoop=1;jettySize=auto;html=1;fontSize=12;startSize=8;endSize=8;" edge="1" parent="1" source="6R2seUFfjXMMIa1IyGc2-11" target="6R2seUFfjXMMIa1IyGc2-15">
          <mxGeometry relative="1" as="geometry" />
        </mxCell>
        <mxCell id="6R2seUFfjXMMIa1IyGc2-11" value="output n 按二进制输出作为原码" style="shape=parallelogram;perimeter=parallelogramPerimeter;whiteSpace=wrap;html=1;fixedSize=1;" vertex="1" parent="1">
          <mxGeometry x="109" y="148" width="120" height="60" as="geometry" />
        </mxCell>
        <mxCell id="6R2seUFfjXMMIa1IyGc2-18" value="yes" style="edgeStyle=none;curved=1;rounded=0;orthogonalLoop=1;jettySize=auto;html=1;fontSize=12;startSize=8;endSize=8;" edge="1" parent="1" source="6R2seUFfjXMMIa1IyGc2-15" target="6R2seUFfjXMMIa1IyGc2-17">
          <mxGeometry relative="1" as="geometry" />
        </mxCell>
        <mxCell id="6R2seUFfjXMMIa1IyGc2-20" value="no" style="edgeStyle=none;curved=1;rounded=0;orthogonalLoop=1;jettySize=auto;html=1;fontSize=12;startSize=8;endSize=8;" edge="1" parent="1" source="6R2seUFfjXMMIa1IyGc2-15" target="6R2seUFfjXMMIa1IyGc2-19">
          <mxGeometry relative="1" as="geometry" />
        </mxCell>
        <mxCell id="6R2seUFfjXMMIa1IyGc2-15" value="n&amp;lt;0?" style="rhombus;whiteSpace=wrap;html=1;" vertex="1" parent="1">
          <mxGeometry x="357" y="142" width="80" height="80" as="geometry" />
        </mxCell>
        <mxCell id="6R2seUFfjXMMIa1IyGc2-27" value="" style="edgeStyle=none;curved=1;rounded=0;orthogonalLoop=1;jettySize=auto;html=1;fontSize=12;startSize=8;endSize=8;" edge="1" parent="1" source="6R2seUFfjXMMIa1IyGc2-17" target="6R2seUFfjXMMIa1IyGc2-25">
          <mxGeometry relative="1" as="geometry" />
        </mxCell>
        <mxCell id="6R2seUFfjXMMIa1IyGc2-17" value="取绝对值,按位取反,将符号位设置为1,结果储存到 反n" style="whiteSpace=wrap;html=1;" vertex="1" parent="1">
          <mxGeometry x="331" y="-149" width="120" height="60" as="geometry" />
        </mxCell>
        <mxCell id="6R2seUFfjXMMIa1IyGc2-29" value="" style="edgeStyle=none;curved=1;rounded=0;orthogonalLoop=1;jettySize=auto;html=1;fontSize=12;startSize=8;endSize=8;" edge="1" parent="1" source="6R2seUFfjXMMIa1IyGc2-19" target="6R2seUFfjXMMIa1IyGc2-25">
          <mxGeometry relative="1" as="geometry" />
        </mxCell>
        <mxCell id="6R2seUFfjXMMIa1IyGc2-19" value="将n赋给 反n" style="whiteSpace=wrap;html=1;" vertex="1" parent="1">
          <mxGeometry x="558" y="145" width="120" height="60" as="geometry" />
        </mxCell>
        <mxCell id="6R2seUFfjXMMIa1IyGc2-32" value="" style="edgeStyle=none;curved=1;rounded=0;orthogonalLoop=1;jettySize=auto;html=1;fontSize=12;startSize=8;endSize=8;" edge="1" parent="1" source="6R2seUFfjXMMIa1IyGc2-25" target="6R2seUFfjXMMIa1IyGc2-31">
          <mxGeometry relative="1" as="geometry" />
        </mxCell>
        <mxCell id="6R2seUFfjXMMIa1IyGc2-25" value="反n 按二进制输出作为反码" style="shape=parallelogram;perimeter=parallelogramPerimeter;whiteSpace=wrap;html=1;fixedSize=1;" vertex="1" parent="1">
          <mxGeometry x="550" y="-152" width="120" height="60" as="geometry" />
        </mxCell>
        <mxCell id="6R2seUFfjXMMIa1IyGc2-34" value="yes" style="edgeStyle=none;curved=1;rounded=0;orthogonalLoop=1;jettySize=auto;html=1;fontSize=12;startSize=8;endSize=8;" edge="1" parent="1" source="6R2seUFfjXMMIa1IyGc2-31" target="6R2seUFfjXMMIa1IyGc2-33">
          <mxGeometry relative="1" as="geometry" />
        </mxCell>
        <mxCell id="6R2seUFfjXMMIa1IyGc2-36" value="no" style="edgeStyle=none;curved=1;rounded=0;orthogonalLoop=1;jettySize=auto;html=1;fontSize=12;startSize=8;endSize=8;" edge="1" parent="1" source="6R2seUFfjXMMIa1IyGc2-31" target="6R2seUFfjXMMIa1IyGc2-35">
          <mxGeometry relative="1" as="geometry" />
        </mxCell>
        <mxCell id="6R2seUFfjXMMIa1IyGc2-31" value="n&amp;lt;0?" style="rhombus;whiteSpace=wrap;html=1;" vertex="1" parent="1">
          <mxGeometry x="763" y="-27" width="80" height="80" as="geometry" />
        </mxCell>
        <mxCell id="6R2seUFfjXMMIa1IyGc2-38" value="" style="edgeStyle=none;curved=1;rounded=0;orthogonalLoop=1;jettySize=auto;html=1;fontSize=12;startSize=8;endSize=8;" edge="1" parent="1" source="6R2seUFfjXMMIa1IyGc2-33" target="6R2seUFfjXMMIa1IyGc2-37">
          <mxGeometry relative="1" as="geometry" />
        </mxCell>
        <mxCell id="6R2seUFfjXMMIa1IyGc2-33" value="反n+1存到 补n" style="whiteSpace=wrap;html=1;" vertex="1" parent="1">
          <mxGeometry x="954" y="-146" width="120" height="60" as="geometry" />
        </mxCell>
        <mxCell id="6R2seUFfjXMMIa1IyGc2-39" style="edgeStyle=none;curved=1;rounded=0;orthogonalLoop=1;jettySize=auto;html=1;fontSize=12;startSize=8;endSize=8;" edge="1" parent="1" source="6R2seUFfjXMMIa1IyGc2-35" target="6R2seUFfjXMMIa1IyGc2-37">
          <mxGeometry relative="1" as="geometry" />
        </mxCell>
        <mxCell id="6R2seUFfjXMMIa1IyGc2-35" value="补n=反n" style="whiteSpace=wrap;html=1;" vertex="1" parent="1">
          <mxGeometry x="938" y="127" width="120" height="60" as="geometry" />
        </mxCell>
        <mxCell id="6R2seUFfjXMMIa1IyGc2-41" value="" style="edgeStyle=none;curved=1;rounded=0;orthogonalLoop=1;jettySize=auto;html=1;fontSize=12;startSize=8;endSize=8;" edge="1" parent="1" source="6R2seUFfjXMMIa1IyGc2-37" target="6R2seUFfjXMMIa1IyGc2-40">
          <mxGeometry relative="1" as="geometry" />
        </mxCell>
        <mxCell id="6R2seUFfjXMMIa1IyGc2-37" value="补n 按二进制输出作为补码" style="shape=parallelogram;perimeter=parallelogramPerimeter;whiteSpace=wrap;html=1;fixedSize=1;" vertex="1" parent="1">
          <mxGeometry x="1031" y="-9" width="120" height="60" as="geometry" />
        </mxCell>
        <mxCell id="6R2seUFfjXMMIa1IyGc2-40" value="end" style="rounded=1;whiteSpace=wrap;html=1;" vertex="1" parent="1">
          <mxGeometry x="1319" y="-5" width="120" height="60" as="geometry" />
        </mxCell>
      </root>
    </mxGraphModel>
  </diagram>
</mxfile>
